<?xml version="1.0" encoding="utf-8"?>
<!-- Generator: Adobe Illustrator 26.5.2, SVG Export Plug-In . SVG Version: 6.00 Build 0)  -->
<svg version="1.1" id="Layer_1" xmlns="http://www.w3.org/2000/svg" xmlns:xlink="http://www.w3.org/1999/xlink" x="0px" y="0px"
	 viewBox="0 0 47.9 33.3" style="enable-background:new 0 0 47.9 33.3;" xml:space="preserve">
<style type="text/css">
	.st0{fill:#FFFFFF;}
	.st1{fill:#EFCC3C;}
	.st2{fill:#8DC13A;}
</style>
<g>
	<g>
		<circle class="st0" cx="28.5" cy="5.1" r="0.9"/>
		<path class="st1" d="M28.5,0.3c-2.7,0-4.9,2.2-4.9,4.9s2.2,4.9,4.9,4.9s4.9-2.2,4.9-4.9S31.2,0.3,28.5,0.3L28.5,0.3z"/>
	</g>
	<g>
		<circle class="st0" cx="24.8" cy="14.9" r="0.9"/>
		<path class="st1" d="M24.8,10c-2.7,0-4.9,2.2-4.9,4.9s2.2,4.9,4.9,4.9s4.9-2.2,4.9-4.9S27.4,10,24.8,10L24.8,10z"/>
	</g>
	<g>
		<circle class="st0" cx="19.9" cy="26" r="2.5"/>
		<path class="st2" d="M19.9,19.5c-3.6,0-6.5,2.9-6.5,6.5s2.9,6.5,6.5,6.5s6.5-2.9,6.5-6.5S23.5,19.5,19.9,19.5L19.9,19.5z"/>
	</g>
	<g>
		<path class="st0" d="M5.4,28.6c-0.1,0-0.2,0-0.4-0.1c-0.5-0.2-0.7-0.7-0.5-1.2l9.9-22.4c0.2-0.4,0.6-0.5,0.8-0.5
			c0.1,0,0.2,0,0.4,0.1c0.5,0.2,0.7,0.7,0.5,1.2L6.2,28C6,28.4,5.7,28.6,5.4,28.6z"/>
		<path class="st1" d="M15.3,0.3c-1.9,0-3.7,1.1-4.5,2.9L0.9,25.7c-1.1,2.5,0,5.4,2.5,6.5c0.6,0.3,1.3,0.4,2,0.4
			c1.9,0,3.7-1.1,4.5-2.9l9.9-22.4c1.1-2.5,0-5.4-2.5-6.5C16.6,0.5,15.9,0.3,15.3,0.3L15.3,0.3z"/>
	</g>
</g>
<g>
	<path class="st0" d="M32.7,28.6c-0.1,0-0.2,0-0.4-0.1c-0.3-0.1-0.4-0.3-0.5-0.5s-0.1-0.4,0-0.7l9.9-22.4c0.2-0.4,0.6-0.5,0.8-0.5
		c0.1,0,0.2,0,0.4,0.1c0.5,0.2,0.7,0.7,0.5,1.2L33.5,28C33.3,28.4,32.9,28.6,32.7,28.6z"/>
	<path class="st2" d="M42.6,0.3c-1.9,0-3.7,1.1-4.5,2.9l-9.9,22.4c-1.1,2.5,0,5.4,2.5,6.5c0.6,0.3,1.3,0.4,2,0.4
		c1.9,0,3.7-1.1,4.5-2.9L47,7.2c1.1-2.5,0-5.4-2.5-6.5C43.9,0.5,43.2,0.3,42.6,0.3L42.6,0.3z"/>
</g>
</svg>
