<?xml version="1.0" encoding="utf-8"?>
<!-- Generator: Adobe Illustrator 25.0.0, SVG Export Plug-In . SVG Version: 6.00 Build 0)  -->
<svg version="1.1" id="Layer_1" xmlns="http://www.w3.org/2000/svg" xmlns:xlink="http://www.w3.org/1999/xlink" x="0px" y="0px"
	 viewBox="0 0 47.93 33.32" style="enable-background:new 0 0 47.93 33.32;" xml:space="preserve">
<style type="text/css">
	.st0{fill:#E46425;}
	.st1{fill:#5AADC5;}
	.st2{fill:#FFD105;}
</style>
<g>
	<path class="st0" d="M17.05,32.15L17.05,32.15c-2.48-1.09-3.6-3.98-2.51-6.46l9.88-22.42c1.09-2.48,3.98-3.6,6.46-2.51l0,0
		c2.48,1.09,3.6,3.98,2.51,6.46l-9.88,22.42C22.42,32.12,19.53,33.24,17.05,32.15z"/>
	<path class="st1" d="M3.43,32.15L3.43,32.15c-2.48-1.09-3.6-3.98-2.51-6.46l9.88-22.42c1.09-2.48,3.98-3.6,6.46-2.51l0,0
		c2.48,1.09,3.6,3.98,2.51,6.46L9.88,29.64C8.79,32.12,5.9,33.24,3.43,32.15z"/>
	<path class="st2" d="M39.48,25.31c-0.15,0.95-0.19,2.1,0.46,2.9c0.79,0.96,2.08,0.84,3.1,0.41c0.2-0.08,2.26-1.19,2.26-1.21
		c0.14,0.31,0.22,0.47,0.31,0.66c0.35,0.76-0.34,1.76-0.46,1.88c-0.45,0.47-0.64,0.68-1.03,0.94c-1.85,1.27-4.16,1.86-6.36,2.02
		c-3.01,0.22-5.85-0.21-6.5-0.55c-0.01,0-0.01-0.01-0.01-0.01c-0.19-0.05-0.38-0.12-0.57-0.2c-2.48-1.09-3.6-3.98-2.51-6.46
		l4.21-9.57l0.01-0.01L34.2,12l3.84-8.73c1.09-2.47,3.99-3.6,6.46-2.51c1.84,0.81,2.93,2.61,2.93,4.49c0,0.66-0.14,1.33-0.42,1.97
		l-6.56,14.89l-0.01,0.04C40.05,23.18,39.66,24.22,39.48,25.31z"/>
</g>
</svg>
